# xmcd
#
# Track frame offsets:
#	150
#	25098
#	41577
#	59002
#	77570
#	99761
#	118607
#	132494
#	155744
#	172640
#	190539
#	202225
#	214858
#	225345
#	235749
#	247769
#
# Disc length: 3582
#
# Revision: 1
# Processed by: cddbd v1.5.1PL0 Copyright (c) Steve Scherf et al.
# Submitted via: OrangeCD 5.2
# Normalized: r0:DSETVAR1
#
DISCID=c70dfc10
DTITLE=Various Artist - Superstar Blues CD1
DYEAR=1900
DGENRE=Blues
TTITLE0=Albert Collins - Honey Hush
TTITLE1=B.B. King - Outside Help
TTITLE2=Brownie McGee - The Way I Feel
TTITLE3=Buddy Guy - Ah'w Baby/Everything Gonna Be Alright
TTITLE4=Buddy Guy - Checking On My Baby
TTITLE5=Buddy Guy - High Heel Sneakers
TTITLE6=Corey Bell - What My Mamma Told Me
TTITLE7=Champion Jack Dupree - Wine, wine, wine
TTITLE8=Charlie Musselwhite - Trouble No More
TTITLE9=Cow Cow Davenport - Slow Drag
TTITLE10=Carl Hooker - The Leading Brand
TTITLE11=Elmore James - Early in the Morning
TTITLE12=Eric Clapton - West Coast Idea
TTITLE13=Howlin' Wolf - I've Been Abused
TTITLE14=Jeff Beck - Steelin'
TTITLE15=Jimi Hendrix - Red House
EXTD=
EXTT0=
EXTT1=
EXTT2=
EXTT3=
EXTT4=
EXTT5=
EXTT6=
EXTT7=
EXTT8=
EXTT9=
EXTT10=
EXTT11=
EXTT12=
EXTT13=
EXTT14=
EXTT15=
PLAYORDER=
